<mxfile host="app.diagrams.net" modified="2021-01-03T12:42:24.291Z" agent="5.0 (Macintosh; Intel Mac OS X 10_12_4) AppleWebKit/604.3.5 (KHTML, like Gecko) Version/10.1 Safari/602.1 EdgiOS/45.11.11" etag="AjvRQDxYUatLXRlSkA5O" version="14.1.8" type="github">
  <diagram id="t-H_7gqRwnys-VTGlOng" name="Page-1">
    <mxGraphModel dx="633" dy="495" grid="1" gridSize="10" guides="1" tooltips="1" connect="1" arrows="1" fold="1" page="1" pageScale="1" pageWidth="827" pageHeight="1169" math="0" shadow="0">
      <root>
        <mxCell id="0" />
        <mxCell id="1" parent="0" />
        <mxCell id="3d-QtM08BdpX0n_zwbMX-3" value="" style="edgeStyle=orthogonalEdgeStyle;rounded=0;orthogonalLoop=1;jettySize=auto;html=1;" edge="1" parent="1" source="3d-QtM08BdpX0n_zwbMX-1" target="3d-QtM08BdpX0n_zwbMX-2">
          <mxGeometry relative="1" as="geometry" />
        </mxCell>
        <mxCell id="3d-QtM08BdpX0n_zwbMX-1" value="Text" style="text;html=1;strokeColor=none;fillColor=none;align=center;verticalAlign=middle;whiteSpace=wrap;rounded=0;" vertex="1" parent="1">
          <mxGeometry x="260" y="190" width="40" height="110" as="geometry" />
        </mxCell>
        <mxCell id="3d-QtM08BdpX0n_zwbMX-5" value="" style="edgeStyle=orthogonalEdgeStyle;rounded=0;orthogonalLoop=1;jettySize=auto;html=1;" edge="1" parent="1" source="3d-QtM08BdpX0n_zwbMX-2" target="3d-QtM08BdpX0n_zwbMX-4">
          <mxGeometry relative="1" as="geometry" />
        </mxCell>
        <mxCell id="3d-QtM08BdpX0n_zwbMX-2" value="" style="whiteSpace=wrap;html=1;" vertex="1" parent="1">
          <mxGeometry x="340" y="215" width="120" height="60" as="geometry" />
        </mxCell>
        <mxCell id="3d-QtM08BdpX0n_zwbMX-4" value="" style="shape=parallelogram;perimeter=parallelogramPerimeter;whiteSpace=wrap;html=1;fixedSize=1;" vertex="1" parent="1">
          <mxGeometry x="340" y="355" width="120" height="60" as="geometry" />
        </mxCell>
      </root>
    </mxGraphModel>
  </diagram>
</mxfile>
